<?xml version="1.0" encoding="utf-8"?>
<svg version="1.1" id="Layer_1"
xmlns="http://www.w3.org/2000/svg"
xmlns:xlink="http://www.w3.org/1999/xlink"
width="1256px" height="940px"
xml:space="preserve">
<g id="PathID_1" transform="matrix(5.95921, 0, 0, 5.95921, 360.8, 48.7)" opacity="1">
<path style="fill:#8CD778;fill-opacity:1" d="M137.95 27L138.6 27.7L139.3 28.7L140 29.4L140.7 30.45L141.4 31.15L142.1 32.15L142.8 32.85L142.1 33.55L145.15 36.6Q144.45 37.3 144.85 41.05L144.15 40.75L143.05 42.45L144.85 48.55Q145.85 52.3 145.85 54.7Q143.75 51.35 141.7 40.05L141.1 40.05L141.1 41.35L140.4 40.35L139.7 40.05Q138.6 41.35 140 44.5L139 45.5Q139 44.1 137.65 44.1L137.25 44.8L135.25 45.5L134.55 52.7L136.25 53.7L136.25 53L136.95 53L138.35 53.7L138.35 53.4Q141.1 58.15 140.4 60.25L138.6 55.4L139 61.6Q139.3 65.35 137.65 67.45L136.95 67.05Q135.95 67.75 136.25 69.8Q136.25 74.95 131.1 73.2L131.1 72.2L130.8 71.9L130.8 71.2L129.05 73.55L130.1 74.55L130.4 75.25L130.8 74.95L130.8 77.65Q132.8 79.7 132.5 82.1L132.8 82.45Q131.8 88.6 125.95 92.05L126.35 93.45Q125.25 94.75 122.9 94.75Q128.35 100.25 121.9 103.35Q121.9 102.35 119.15 99.85Q117.75 101.65 118.15 103.05Q118.45 104.7 120.8 106.4Q121.2 108.05 120.8 111.25L120.8 111.95Q121.5 112.5 122.2 111.95Q122.2 114.6 121.2 115.3L115 106.8Q116.1 106.8 118.45 108.75L119.15 108.45Q118.85 105.7 117.05 104L117.75 100.25Q114.7 99.55 114.4 98.9Q114 98.2 114.7 95.8Q113.3 94.75 112.3 91.65Q110.95 92.75 108.85 93.05Q107.2 96.1 103.4 98.9Q103.4 103.35 101.35 105.7Q98.6 101.65 97.2 93.75L95.9 94.45Q94.8 94.15 93.85 92.35Q93.15 90.3 91.75 90L88 90.3Q85.6 90.3 84.25 89Q82.55 89.7 80.5 87.6Q78.8 85.55 77 86.25L79.1 90.3L79.4 89.7L80.1 90L80.1 91.35Q81.45 91.65 83.55 90.7L86.6 93.75Q82.55 99.2 73.65 101.95Q68.8 88.3 66.05 88.3L74.35 104L79.8 102.65Q78.1 109.45 74.95 110.85Q72.95 111.55 72.95 113.6Q70.9 114.3 70.9 116.7L74.35 116.7Q74.65 118.05 74.35 118.75L70.9 118.75Q71.9 122.5 71.9 124.6L68.8 127.95Q68.5 128.65 68.8 131L66.75 131.7Q66.75 136.85 62.3 137.95L62.3 138.6L62 138.6L58.25 137.25Q53.1 127.65 52.1 123.9Q51.4 121.8 52.4 120.15L47.95 107.8Q47.65 107.1 46.25 106.8Q44.9 106.4 44.5 105.7Q30.15 106.8 30.15 95.8L33.2 84.55Q35.6 84.15 36.7 81.4Q38.35 78 39.05 77.35L44.5 76.95Q47.95 76.35 49.65 77.35L49.65 79.4L49.35 79.7Q49.35 81.1 50.7 81.8Q52.4 82.45 52.7 83.15L55.15 84.55Q55.85 82.45 59.2 83.45Q63 84.85 64.05 83.85L66.05 84.55Q67.45 82.75 67.85 79.7L64.05 79.4L64.05 79L63.65 79L61.6 78.3Q61.6 77.35 60.6 76.35Q61.3 73.85 59.9 73.55L58.95 74.55L58.55 73.85Q57.85 74.95 59.6 76.65Q58.55 76.95 58.25 78.3Q57.55 77.35 56.55 74.25Q55.85 71.2 54.1 70.1L53.8 71.5L52.7 71.5L53.4 72.2L54.1 71.9L54.1 72.9L55.15 74.25L54.5 73.85L54.1 74.25L54.5 75.65Q53.1 76.35 52.4 77.35L51 76.35L53.1 75.95L53.8 75.65L53.1 74.25Q52.4 74.55 50.7 74.25Q49.35 73.85 48.25 74.55L48.65 72.9L48.95 72.5L48.65 69.4Q47.95 69.8 45.9 69.4Q44.9 70.5 43.2 73.2Q43.5 73.85 43.2 75.25Q40.05 76.65 38.75 76.65L37.65 75.65L37 75.65Q37 72.9 37.35 72.5Q37 70.1 37.35 69.4L41.8 69.15Q43.5 68.45 42.8 66.35L42.1 66.75L41.8 62.6L43.2 63L45.6 61.6L45.6 60.25L41.8 60.9L42.1 60.25L42.8 59.15L42.1 58.85Q44.2 56.75 44.2 55.4L42.5 55.8L41.8 57.85L39.35 58.55L40.45 55.8L39.75 55.1Q41.15 52.7 41.8 52.3L42.5 50.25L44.2 49.95L44.2 50.65L45.2 49.65L45.9 49.95L45.2 50.25Q46.95 51.35 47.95 50.95Q47.95 52 45.9 53.7Q46.25 58.15 47.65 59.55Q49.65 57.15 51 57.45Q53.4 52 54.1 51.65L54.1 50.95Q50.7 50.65 49.35 49.65L51.7 45.2L52.1 45.5Q53.1 43.15 56.55 39.65Q60.3 36.3 61.3 34.25L60.6 34.25L63.65 31.15L64.35 31.15L64.35 31.85Q68.1 29.8 68.8 29.8Q69.5 29.8 69.9 31.15L69.5 31.45L69.5 32.15L70.9 32.15L70.9 32.85Q72.55 33.55 74.95 36.3Q74.95 38.7 73.65 38.95L69.9 38.3L70.9 39.35Q69.9 42.45 72.3 43.15L71.6 41.75L71.9 41.05L73.95 41.75L73.65 40.35L75.35 38.7L76.35 39.35Q76.75 35.9 76.35 34.9Q77.7 34.9 78.1 35.9L77 36.9L77.7 38L78.4 38L78.8 36.6L82.15 34.55L82.55 35.6L86.3 34.55L84.95 31.15L90.75 34.9L91.05 34.25Q89.4 32.45 89 29.4Q89.7 29.1 90.05 26L91.45 26Q94.15 32.45 92.45 38.7L93.15 38.95L93.85 36.3Q94.15 34.25 94.8 33.55L93.85 33.85L93.15 26.3L93.85 29.4L95.2 29.8L93.85 28.4L93.85 27.7L94.5 27.7L94.15 26.3L96.9 28.4L96.9 27.7L95.9 26.7Q95.2 24.65 95.5 24.25L97.9 23.25Q95.9 20.9 99.25 18.1L99.95 18.1L100.65 17.8L100.35 17.4L101.05 17.15Q99.95 15.75 100.35 14.05L101.35 15.35Q102.35 15.75 102.75 16.75Q104.1 15.35 105.1 16.45Q105.8 17.4 107.5 22.25L107.85 22.25L108.55 22.95L111.25 23.25Q112.6 23.95 113.7 23.25L113.3 22.95L113.3 22.25L114.7 22.25Q115.4 22.55 117.05 24.95Q118.15 26.7 119.85 27L119.45 25.65Q120.15 26 121.9 25.35L120.55 23.95Q121.5 22.95 120.8 22.95Q123.9 22.95 127.05 25.65Q127.75 24.95 131.8 27.4L131.8 26.7L133.2 26.7L133.2 25.65Q133.5 27.4 135.25 27.4Q133.9 26 133.9 25.35Q135.55 25.35 136.95 26.3L137.95 27M117.05 17.8L117.45 18.8Q116.35 17.8 116.35 19.1Q114.7 18.8 113.3 16.05L114.7 16.75L114.4 16.05L115.7 16.45L117.05 17.4L117.05 17.8M99.25 12.3L98.6 13L98.3 13.65L96.6 10.2L96.9 10.2L97.6 10.9L97.9 10.9L99.25 12.3M83.55 5.9L83.55 6.15L83.85 6.45L83.85 7.15L83.25 7.85L83.25 7.55L82.85 7.15L82.85 6.45L83.25 6.85L83.25 5.75Q83.55 6.15 83.55 5.9M85.25 6.15L85.25 6.45Q86.6 9.2 84.95 7.55L84.95 6.85Q85.6 6.85 84.95 6.15L85.25 6.15M83.85 8.25L84.25 8.55L83.85 8.9L83.55 8.9L83.25 9.2L83.25 8.55L83.55 8.55L83.55 8.25L83.85 8.25M88.3 17.4L88 18.8L85.9 20.5L84.95 22.55Q84.25 23.55 83.55 25.65Q82.55 28.7 84.25 30.45Q83.85 31.15 83.25 30.75L82.15 30.75Q81.15 29.1 81.15 28Q82.15 27.4 82.55 24.65Q82.55 23.55 83.55 22.25L83.25 21.2L85.6 18.5Q86.6 18.8 87 17.8L88 16.75L88.3 16.75L88.3 17.4M90.75 25.65L90.05 25.65L90.05 24.95L90.35 24.65L91.05 25.35L90.75 25.65M81.15 67.05Q77.7 67.75 76.35 70.5L78.8 74.95Q78.1 75.95 78.1 77.65Q79.8 79 80.8 79L81.85 78.7L82.15 78.3Q81.15 75.95 81.15 74.55L80.8 72.2L79.1 70.1L80.1 69.4Q80.8 68.75 81.45 69.15L81.15 67.05M143.45 66.05Q142.8 66.05 143.05 67.45Q142.1 66.75 141.7 67.05Q141.4 67.45 141.7 67.45L141.4 68.05L141.4 67.45L141.1 66.75Q141.4 66.75 141.1 66.35Q142.4 66.35 141.1 63.6L142.1 64.3Q142.8 65.65 143.05 64.7L143.45 66.05M143.45 70.1Q143.05 70.5 143.75 71.5Q141.7 74.55 141.4 76.95L140 77.35L138.6 78L138.35 80.1L137.25 78Q138.6 76.95 138.6 73.85L139 75.65Q139.7 75.65 140.4 73.85L141.1 73.2Q141.1 72.2 140.4 72.9L140.4 72.5L140 71.9L140 70.5L139.7 70.1L139.7 69.8L141.4 69.8L141.7 68.05Q142.4 69.15 143.45 69.8L143.45 70.1M133.5 93.45L133.45 93.45Q134.05 94.65 133.2 96.1Q133.5 97.2 134.85 97.2Q134.85 98.2 135.55 98.2L136.25 103.05Q135.55 103.35 135.55 104L134.55 104L134.55 103.05L134.85 103.05L134.85 102.65L133.9 103.05L134.15 101.65Q133.5 100.95 133.5 98.9Q132.2 98.6 132.8 93.05L133.45 93.45Q133.6 93.25 133.5 93.05L133.5 93.45M76.05 0.7L76.05 1L71.6 3.1L71.9 3.1L70.2 4.1L69.9 4.75L71.6 3.8Q71.6 4.45 70.5 4.75Q62.7 9.2 59.2 12.3Q59.9 13.65 58.55 13.65L58.25 14.05L58.25 14.65L57.85 14.65L57.85 15.05L57.55 15.05L57.55 15.35L57.15 15.05Q56.15 15.35 55.15 16.75L54.1 18.5L53.4 18.8L53.1 20.2L52.7 20.9L51.7 20.9L50.7 22.55L50.7 22.25L48.25 24.95L48.25 24.65L46.25 28L45.6 28L46.25 26.3Q45.6 27.7 44.9 27.7Q44.9 28.7 45.2 28.7L45.6 28.7L43.2 30.75Q40.75 31.15 39.75 31.85L35.3 35.2Q34.6 35.6 34.3 35.2L32.25 37.3Q29.15 42.05 27.4 43.8Q27.8 42.05 26.7 41.75L26.4 42.05Q28.45 34.55 33.2 28.7L33.2 29.1Q33.9 29.1 35.3 27.4L35.3 27L33.9 27.7Q33.9 27 36 24.95L36.3 25.35L36.3 25.65L37.35 24.65L37 24.25L37.65 23.25L37 23.95L37 23.55L36.7 23.55Q43.5 16.75 45.6 14.05L44.5 14.05Q44.2 12 52.4 7.85Q55.65 6.35 58.25 5.35L55.85 6.15L54.5 6.45L53.1 7.15Q50.35 9.2 48.65 9.2L43.8 12L43.2 11.6L42.5 12L42.8 11.6L42.5 11.6L42.8 11.3L40.05 12.7L40.45 13L40.05 13.35L41.45 13L38.75 15.35L38.35 15.35L37.35 14.65L38.05 14.35L37.65 14.35Q38.75 12.7 41.8 11.3L41.8 10.9L43.8 9.9L42.8 10.6L43.2 10.6L43.5 10.2Q44.2 10.6 47.25 8.55L47.25 8.9L46.25 9.6L48.65 8.25L48.25 8.25L50.7 7.15L48.65 7.85L48.25 7.85L50.35 6.45L51.7 6.15L52.4 5.75L52.7 5.75L53.1 5.45L52.4 5.45L60.6 2.4L60.6 2.7L57.15 4.1L57.55 3.8L57.15 4.45L56.55 4.75L61 3.4L58.95 3.8L59.6 3.4L59.2 3.4L64.05 1.7L63.4 1.7L65.45 1.3L65.05 1.3L66.45 1L66.45 1.3L67.85 1L67.45 1L70.2 0.3L69.9 0.7L72.3 0.05L71.6 0.3L72.95 0.05L71.2 0.7L73.25 0.05L71.6 0.7L71.9 0.7L70.2 1.3L70.5 1.3L68.5 2L63.65 3.1L64.75 3.1L61.2 4.4L63.4 3.8L62 4.45L69.2 2L68.5 2.4L71.9 1.3L72.55 1.3L72.55 1L72.95 1L78.1 0.05L76.05 0.7M75.65 9.2L74.65 10.6L73.95 10.9L73.65 10.6L72.95 10.2Q72.65 11 72.95 11.3Q74.35 9.6 73.25 9.6L73.65 8.55L74.35 8.25L74.65 7.85L74.35 8.55L74.65 8.55L75.35 7.85L75.35 8.55Q75.65 8.55 75.65 9.2M72.95 11.3L72.55 11.6L72.55 12.7L72.3 13.35L72.55 13.35L72.3 14.35L72.3 14.65L71.6 15.75Q71.6 15.05 70.9 15.35L72.3 12.3L68.5 17.15L68.8 15.05L69.5 14.35L68.8 14.35L70.9 12.7L70.5 12.3L70.5 12L69.9 13L69.2 13.35L70.2 11.3L70.2 11.6L71.2 9.6L71.9 9.2L72.3 9.6L72.3 9.9L72.95 8.9Q73.65 8.9 72.95 9.9Q72.9 10.05 72.95 10.2M57.55 3.8L54.5 5.45L57.15 4.1M44.9 36.9L44.2 39.35L43.8 39.65Q42.5 40.05 41.45 41.35L38.05 41.05L39.05 38.7L39.75 38.3Q41.8 37.3 40.75 36.9L40.05 36.9L40.05 36.6L40.45 36.3L40.45 36.6L41.15 35.9Q41.8 35.2 41.8 36.3L41.45 37.3Q42.1 36.9 42.1 36.3Q43.2 37.3 44.5 35.9L44.9 36.9M59.2 45.8L58.95 46.2L58.95 47.2L58.55 47.6Q59.6 48.25 59.6 48.95Q58.25 49.65 57.55 51.65L56.55 54.4L57.55 54.7L58.95 54.7L59.6 55.1Q59.9 52.7 61 52.3L61.3 53.4L62 53.4L62.7 51.35L62 50.95L61 51.35L61.6 50.25L62 50.65Q62.3 49.65 64.05 49.65Q65.45 49.65 65.75 48.95L66.05 48.55L65.75 48.25L62 48.95Q61.3 47.6 61.6 45.8L59.2 45.5L59.2 45.8M80.1 33.55Q80.1 34.55 79.1 34.55L79.1 33.85L79.4 32.85L79.8 32.85L80.1 33.55M28.45 23.25L29.15 22.25L28.75 22.25L29.85 20.9L29.85 21.2L30.45 20.2Q34.3 16.45 36 16.45L35.1 17.35Q35.8 16.75 36.3 16.75L35.3 18.1L36.3 17.15Q37.35 18.1 34.6 19.5Q33.2 21.2 33.2 21.85L32.25 23.25L32.25 23.55L32.55 23.55Q31.85 24.95 31.15 25.35L30.45 26L30.45 26.7L30.15 26.7L30.15 26.3L28.75 28.4L28.45 30.75L28.45 31.15L28.1 31.15L28.1 31.45L27.8 31.85L27.4 31.85L25.7 33.85Q25.4 33.15 25.7 32.45L26.4 31.15L25.4 32.15L23.65 36.3L23.35 36.6Q22.95 36.9 22.95 36.6L22.95 35.6L21.55 38.3Q20.95 35.9 22.65 33.55L22.25 33.55L22.25 32.85L21.55 33.15Q21.55 32.45 22.95 31.45Q22.95 32.45 24 31.85L27.4 27.7L26.7 28L26.7 27.7L25.4 28.7L27.1 27L27.1 27.7L28.45 26L27.8 26L28.1 25.65L28.45 25.65L30.15 22.95L29.15 23.95L28.45 23.25M17.8 33.55L16.1 34.9Q21.25 28 27.4 22.25L25 25.35L26.4 23.95Q26 24.95 25.4 25.35L23.65 27.4L24.7 26.7L25 26L25 26.3Q26 25.35 26.4 25.35L26 25.35L28.1 23.55L24.7 28L22.65 29.4L22.95 28.7L21.25 30.1L21.25 29.8L20.95 30.45L19.55 32.15L19.2 31.85L17.8 33.55M19.55 32.85L22.25 29.4L19.2 33.15L19.2 32.85L19.55 32.85M22.25 29.4L21.55 30.45L21.25 31.85L20.55 32.85L20.55 33.55L19.85 33.85L20.25 32.85L18.9 33.85L19.2 33.55L19.55 32.85M18.2 43.15L20.95 40.75L17.8 48.95Q18.2 48.55 18.9 49.25L18.5 51.35L17.5 53.4L17.8 53.4L16.8 55.4L16.8 56.45L17.5 56.45L17.1 56.75Q17.1 57.85 16.5 58.55L14.75 58.15L17.1 53.7L17.1 53.4L16.1 54.1L15.8 53.7L15.8 54.7L15.1 54.4L14.75 54.1Q14.05 53.7 13.35 54.1Q12.65 54.4 12.65 55.1L13.75 55.4Q13.05 56.75 13.05 59.15L13.75 58.55L13.75 59.15Q13.35 60.55 10.95 61.6L10.95 59.85Q8.9 60.9 8.9 63Q8.2 63 7.6 64L5.85 67.75Q5.85 69.15 3.75 71.2Q3.25 72.7 3.15 76.05L3.15 73.2L2.75 72.9L2.45 73.2Q2.45 71.9 2.05 71.9L1.4 72.2L1.1 71.5Q4.15 53.4 13.35 38.95Q11.65 44.8 12.35 45.5L10.95 48.25L11.35 48.25L10.7 48.95L10.7 49.25L10.95 50.25L12.35 46.9L19.55 35.9L20.55 36.6Q19.55 38.3 19.85 38.95L20.25 38.95L17.8 42.05L18.2 43.15M1.4 80.4L1.8 85.25Q2.05 90.3 2.75 92.75L3.15 92.35L3.75 93.75L4.45 91.65L4.85 92.05L5.15 91.35L5.55 92.35L5.55 91.65Q6.5 94.15 8.6 94.15L9.6 96.1Q10 98.2 12.65 100.55L14.05 105L14.45 105.4L16.5 106.8L17.1 107.8L19.55 108.75Q21.95 110.55 22.25 113.2Q22.25 114.6 21.25 116.95Q21.25 118.75 22.25 122.5L22.25 123.9Q20.25 123.5 20.95 126.55Q21.95 130.3 21.55 131.4L20.25 130.7L24.3 136.15L21.55 135.15L22.65 136.55Q22.65 137.25 24.7 139.9L26.7 142.65Q23.65 139.6 19.85 134.75L20.55 136.15Q12.05 123.9 12.05 121.4L12.65 122.1Q7.6 111.25 6.5 110.55L6.5 110.85L5.15 107.1Q4.15 103.65 4.45 103.05L3.75 95.8L4.15 96.8Q4.15 94.75 3.15 93.05L3.15 94.15Q2.85 93.8 2.75 92.75Q1.6 90.55 0.4 84.85L0.4 84.55L0 84.15L0.4 82.1L1.1 80.1L1.4 80.4M62.7 73.55L64.75 73.85Q65.75 72.2 68.5 73.2Q71.2 74.25 72.55 73.55Q72.55 72.2 71.9 71.5L68.8 68.75L66.75 70.1L66.45 69.15L66.45 68.75Q66.45 68.05 67.15 68.05L64.75 67.45L62.3 72.5L62.7 73.55M74.65 125.55L77.4 123.9Q78.1 123.2 78.1 122.1Q79.1 123.2 79.1 124.6L78.1 127.65Q77 130.3 77 131.7L74.65 132.4L74.65 129.7Q74.95 127.65 74.65 125.55M148.9 110.85Q148.9 112.25 148.2 112.9L146.85 114.3L145.15 113.9L141.1 113.9Q143.05 110.85 139.7 111.25L139.3 111.25L137.65 108.05Q137.95 107.8 138.6 108.45L139 107.8L139.7 108.45L140.4 110.55Q141.4 108.45 144.15 109.15L147.2 109.45L147.2 110.55Q147.9 109.45 150 110.15L150 110.55Q149.3 110.85 148.9 110.55L148.9 110.85M143.75 118.05Q143.45 119.45 144.15 123.2Q144.45 126.25 143.45 128.35Q142.1 131 138.6 135.45L136.65 136.55L136.65 136.15L135.25 136.85L134.55 136.55L134.85 134.75L133.5 135.45L134.85 133.5L133.2 134.75Q134.15 132.8 132.5 132.8L130.1 133.1L127.75 135.15Q127.05 134.75 125 136.15Q123.6 136.85 122.9 135.85Q124.6 133.1 123.6 130.3L124.6 127.25Q125 126.55 127.05 125.85Q130.1 124.6 130.8 122.1Q131.8 122.5 132.5 120.85Q133.5 119.45 134.15 119.45Q134.85 119.45 135.25 120.15L137.65 116.95Q138.35 116.7 139.7 117.35Q139.7 118.75 138.6 119.05Q139 120.15 140.4 121.1Q141.1 120.45 142.8 115.7Q143.75 116.4 143.05 118.05L143.75 118.05M134.85 107.8L134.55 109.15L133.5 109.15Q133.9 109.45 132.5 110.55Q132.5 111.25 133.5 111.95L133.2 113.6L123.9 115Q123.6 114.3 123.9 113.2Q124.3 112.25 124.6 112.25L125 112.5Q125.25 111.25 124.3 110.55L125 108.45L125.65 109.15Q129.05 106.1 130.1 103.65L131.1 105.4L130.8 105.7L130.4 106.4Q130.4 107.8 131.1 108.75Q130.1 109.85 129.45 111.25Q128.75 112.25 129.45 112.25L130.4 111.95Q131.1 111.25 131.5 109.45Q131.1 108.45 132.8 108.45Q134.55 108.05 134.85 107.5L134.85 107.8M121.9 115.3L128.05 116L128.05 116.4Q122.9 118.05 121.9 115.3M136.65 138.25L136.25 138.6Q134.85 140.3 134.15 140.3L134.55 139.6L134.85 138.6L136.65 138.25M103.4 104L104.8 106.8L104.4 106.8L104.1 107.1Q103.7 107.5 103.4 107.1Q102.75 105.7 103.4 104M93.85 9.6L93.15 9.6L92.75 8.9L92.45 7.85L92.15 7.15L91.75 6.85L91.45 5.75L93.15 7.15L93.85 8.25L94.8 9.2L94.5 8.55L95.5 9.6L96.9 11.6L96.6 11.6L95.2 10.9L94.8 10.9L94.15 9.9Q94.15 9.7 93.85 9.6M4.85 84.55Q5.05 84.4 5.15 84.55Q5.85 84.85 6.25 86.25L5.85 86.25L5.15 86.5L4.45 85.55L4.15 85.25L4.85 84.85L4.85 84.55" />
</g>
<g id="PathID_2" transform="matrix(5.95921, 0, 0, 5.95921, 360.8, 48.7)" opacity="1">
</g>
<filter id="filter7" x="-0.549524" y="-0.549524" width="2.28613" height="2.28368" >
<feComponentTransfer in="SourceGraphic">
	<feFuncR type="linear" slope="0"/>
	<feFuncG type="linear" slope="0"/>
	<feFuncB type="linear" slope="0"/>
</feComponentTransfer>
<feGaussianBlur stdDeviation="2 2" />
<feOffset result="1" dx="-3.53558" dy="-3.53549"/>
<feComponentTransfer in="SourceGraphic">
	<feFuncR type="linear" slope="0"/>
	<feFuncG type="linear" slope="0"/>
	<feFuncB type="linear" slope="0"/>
</feComponentTransfer>
<feGaussianBlur stdDeviation="2 2" />
<feOffset result="2" dx="3.53558" dy="3.53549"/>
<feComposite  in="1" in2="2" operator="arithmetic" k2="1" k3="-1"/>
<feComponentTransfer result="3">
	<feFuncR type="linear" Ue="0" intercept="1"/>
	<feFuncG type="linear" Ue="0" intercept="0.670588"/>
	<feFuncB type="linear" Ue="0" intercept="0.298039"/>
	<feFuncA type="linear" xh="0" slope="1"/>
</feComponentTransfer>
<feComposite  in="2" in2="1" operator="arithmetic" k2="1" k3="-1"/>
<feComponentTransfer result="4">
	<feFuncR type="linear" Ue="0" intercept="0.6"/>
	<feFuncG type="linear" Ue="0" intercept="0.317647"/>
	<feFuncB type="linear" Ue="0" intercept="0"/>
	<feFuncA type="linear" xh="0" slope="1"/>
</feComponentTransfer>
<feComposite result="5"  in="3" in2="4" operator="arithmetic" k2="1" k3="1"/>
<feComposite result="6"  in="5" in2="SourceGraphic" operator="atop"/>
</filter>
<g style="filter:url(#filter7);">
<g id="PathID_3" transform="matrix(11.4701, 0, 0, 11.4701, 33.55, 595.05)" opacity="1">
<path style="fill:#FF8900;fill-opacity:1" d="M18.1 0.85Q14.9 0.85 12 -0.4Q9.1 -1.65 6.85 -4Q4.6 -6.35 3.3 -9.7Q2 -13.1 2 -17.35Q2 -21.6 3.25 -25.05Q4.55 -28.55 6.85 -31.05Q9.15 -33.5 12.25 -34.85Q15.35 -36.25 18.85 -36.25Q21.5 -36.25 23.6 -35.6Q25.75 -34.95 27.65 -33.8L28.7 -35.5L30.7 -35.5L30.9 -22.85L28.85 -22.85Q28.45 -24.65 27.65 -26.8Q26.85 -28.95 25.75 -30.45Q24.55 -32.15 22.9 -33.1Q21.3 -34.1 19.15 -34.1Q16.75 -34.1 14.65 -33Q12.6 -31.95 11.05 -29.85Q9.6 -27.8 8.8 -24.65Q8 -21.55 8 -17.7Q8 -14.3 8.85 -11.45Q9.7 -8.65 11.3 -6.5Q12.9 -4.35 15.05 -3.15Q17.25 -2 19.95 -2Q21.95 -2 23.65 -2.6Q25.35 -3.25 26.6 -4.3Q27.85 -5.4 28.8 -6.8Q29.75 -8.2 30.35 -9.85L32.25 -8.95Q30.1 -3.65 26.55 -1.4Q23 0.85 18.1 0.85" />
</g>
<g id="PathID_4" transform="matrix(11.4701, 0, 0, 11.4701, 33.55, 595.05)" opacity="1">
</g>
</g>
<filter id="filter10" x="-0.589048" y="-0.589048" width="2.3581" height="2.3581" >
<feComponentTransfer in="SourceGraphic">
	<feFuncR type="linear" slope="0"/>
	<feFuncG type="linear" slope="0"/>
	<feFuncB type="linear" slope="0"/>
</feComponentTransfer>
<feGaussianBlur stdDeviation="4 4" />
<feComponentTransfer result="8">
	<feFuncR type="linear" Ue="0" intercept="1"/>
	<feFuncG type="linear" Ue="0" intercept="0"/>
	<feFuncB type="linear" Ue="0" intercept="0"/>
	<feFuncA type="linear" xh="0" slope="1"/>
</feComponentTransfer>
<feComposite result="9"  in="SourceGraphic" in2="8" operator="over"/>
</filter>
<g style="filter:url(#filter10);">
<g id="PathID_5" transform="matrix(9.93823, 0, 0, 9.93823, 333.35, 652.75)" opacity="1">
<path style="fill:#FF0000;fill-opacity:1" d="M23.05 -33.9L23.2 -25.2L22 -25.2Q19.5 -33 13.2 -33Q9.7 -33 7.75 -31.05Q5.8 -29.15 5.8 -27.05Q5.8 -25.15 7.4 -23.8Q9.05 -22.45 13.3 -21.7Q17.6 -20.95 19.8 -19.9Q22.05 -18.85 23.6 -16.35Q25.15 -13.9 25.15 -10.7Q25.15 -5.75 21.9 -2.45Q18.7 0.8 13.95 0.8Q10.1 0.8 6.25 -2.1L3.9 0L3 0L3 -9.35L4.1 -9.35Q5.55 -4.95 8.2 -2.7Q10.85 -0.5 14 -0.5Q17.15 -0.5 19.75 -2.55Q22.35 -4.6 22.35 -7.75Q22.35 -10.4 20.55 -12.2Q18.75 -14.05 14.65 -14.7Q10.6 -15.4 8.4 -16.3Q6.25 -17.25 4.7 -19.5Q3.15 -21.75 3.15 -24.5Q3.15 -28.3 5.85 -31.3Q8.55 -34.3 13.2 -34.3Q17.05 -34.3 20.4 -31.85Q21.35 -32.7 22 -33.9L23.05 -33.9" />
</g>
<g id="PathID_6" transform="matrix(9.93823, 0, 0, 9.93823, 333.35, 652.75)" opacity="1">
</g>
</g>
<g id="PathID_7" transform="matrix(1.16053, 0, 0, 1.16053, 11.15, 669.4)" opacity="1">
<path style="fill:#74E868;fill-opacity:1" d="M101.5 19.35L87.45 17.6L88.15 18.65Q90.25 19 91.85 19.7L93.6 20.9L94.85 22.3L99.25 42L99.6 45.65Q99.4 46.35 98.35 46.35Q97.45 46.35 94.65 44.95L93.45 44.45L93.6 45.3L115.4 55.5L115.2 54.8L114.35 54.25Q111.85 53.2 110.8 52.15Q109.75 51.3 109.05 50.25L102.55 19.85L101.5 19.35M100.3 5.45Q117.85 13.7 132.25 29.35Q146.65 44.8 149.45 58.5Q151.05 66.2 147.9 70.95L147.9 71.1L141.55 79.35Q141.4 79.9 140.5 79.9L138.9 81.85Q138.4 82.9 137.35 82.2L136.1 83.95Q135.05 85 134 84.1L133.85 83.75L132.6 85.35Q131.55 86.4 130.65 85.5Q130.15 85.35 130.15 84.45L128.75 86.2Q127.85 87.25 126.8 86.55Q125.75 85.85 126.45 84.45L132.4 76.9L131.9 76.9L124.5 86.55Q123.45 87.6 122.6 86.75Q121.55 86.2 122.25 84.8L128.75 76.4L127.7 76.2L119.95 86.4Q118.9 87.45 118 86.55Q116.8 86.05 117.85 84.65L124.85 75.5L123.3 75.15L115.2 85.7Q114.15 86.75 113.3 85.85Q112.2 85.35 112.95 83.95L120.5 74.1L118.55 73.4L110.1 84.45Q109.4 85.5 108.2 84.65Q107.15 83.95 108 82.7L115.9 72.35L114 71.45L113.8 71.3L105 82.7Q104.3 83.75 103.1 83.05Q102.05 82.2 102.9 80.95L111.15 70.05L108.7 68.85L99.75 80.45Q99.25 81.5 97.8 80.8Q96.75 79.75 97.65 78.85L106.45 67.45L103.8 65.85L94.5 77.8Q93.8 78.85 92.55 77.95Q91.5 77.25 92.4 76.05L101.35 64.3L98.5 62.35L89.2 74.45Q88.5 75.85 87.45 74.8L87.3 74.8Q86.25 73.75 87.1 72.9L96.4 60.75L93.6 58.5L93.45 58.65L84.1 70.75Q83.6 71.65 82.7 71.3L85.7 73.75Q72.7 82.7 52 82.7Q34.05 82.7 21.4 75.7Q8.6 68.5 8.6 58.65Q8.6 48.65 21.4 41.65Q34.05 34.6 52 34.6L56 34.6L56.2 34.25L65.5 22.15L65.85 21.8L65.7 21.25L57.6 31.8Q57.05 32.7 56.2 32.35L56.35 33.2L52 33.2Q33 33.2 19.65 40.75Q6.15 48.15 6.15 58.65Q6.15 69 19.65 76.55Q33 84.1 52 84.1Q73.25 84.1 87.3 75L91.3 77.6L91.3 93.25Q91.3 94.65 90.1 94.65Q88.7 94.65 88.7 93.25L88.7 79L87.1 79.9L87.1 95.5Q87.1 96.95 85.7 96.95Q84.45 96.95 84.45 95.5L84.45 81.15L82.35 82L82.55 82.35L82.55 97.65Q82.55 99.05 80.95 99.05Q79.75 99.05 79.75 97.65L79.75 82.9L77.25 83.75L77.25 99.4Q77.25 100.8 75.85 100.8Q74.65 100.8 74.65 99.4L74.65 84.45L71.65 85.15L71.85 85.5L71.85 100.8Q71.85 102.2 70.4 102.2Q69 102.2 69 100.8L69 85.7L65.85 86.2L66.05 86.4L66.05 101.85Q66.05 103.25 64.6 103.25Q63.2 103.25 63.2 101.85L63.2 86.75L59.9 87.1L59.9 102.35Q59.9 103.8 58.5 103.8Q57.05 103.8 57.05 102.35L57.05 87.25L53.55 87.25L53.55 102.7Q53.55 104.15 52 104.15Q50.75 104.15 50.75 102.7L50.75 87.25L47.05 87.25L47.05 102.35Q47.05 103.8 45.65 103.8Q44.4 103.8 44.4 102.35L44.4 87.1L40.9 86.75L40.9 101.85Q40.9 103.25 39.7 103.25Q38.3 103.25 38.3 101.85L38.3 86.2L35.1 85.7L35.1 100.8Q35.1 102.2 33.7 102.2Q32.3 102.2 32.3 100.8L32.3 85.5L32.5 85.15L29.65 84.45L29.65 99.4Q29.65 100.8 28.25 100.8Q26.85 100.8 26.85 99.4L26.85 83.75L24.6 82.9L24.6 97.65Q24.6 99.05 23 99.05Q21.75 99.05 21.75 97.65L21.75 82L19.85 81.15L19.85 95.5Q19.85 96.95 18.45 96.95Q17 96.95 17 95.5L17 79.9L15.45 79L15.45 93.25Q15.45 94.65 14.2 94.65Q12.8 94.65 12.8 93.25L12.8 77.45L11.95 76.75L11.95 90.6Q11.95 92 10.55 92Q9.1 92 9.1 90.6L9.1 74.8L8.75 74.45L8.75 87.8Q8.75 89.2 7.35 89.2Q5.95 89.2 5.95 87.8L5.95 85.5Q5.45 86.05 4.75 86.05Q3.3 86.05 3.3 84.65L3.3 82.7L2.95 82.9Q1.55 82.9 1.55 81.5L1.55 79.35Q0.35 79.35 0.35 78.15L0.35 75.5L0 74.65L0 59.2L0.15 58.65Q0.15 46.7 15.25 38.3Q30.55 29.85 52 29.85L55.5 29.85L56.9 28.3Q56 28.65 55.5 28.1Q54.45 27.05 55.3 26.2L56.35 24.6L56 24.45Q54.95 23.35 55.85 22.5L57.05 20.75Q56.2 20.05 56.9 19L58.5 17.05Q58.5 16.35 58.85 16L67.95 4.05L68.15 3.9L68.5 3.35Q72.9 -0.3 81.15 0.05Q89.75 0.55 100.3 5.45M82.55 48.3L80.25 45.65L80.1 46L70.75 58.15L70.05 58.65L72.35 61.3L72.55 60.95L81.85 48.65L82.55 48.3M91.5 56.75L88.7 54.25L88.5 54.6L79.2 66.75Q79.05 67.25 78.15 67.25L81.85 70.6Q81.5 70.05 81.85 69.2L91.3 56.9L91.5 56.75M86.95 52.5L84.3 50.05L83.95 50.4L74.65 62.5Q74.45 63.05 73.95 63.05L76.75 65.85L76.9 65.15L86.25 52.85L86.95 52.5M95 79.9L95 90.6Q95 92 93.8 92Q92.4 92 92.4 90.6L92.4 78.3L95 79.9M99.4 86.05Q98.7 86.05 98.35 85.5L98.35 87.8Q98.35 89.2 96.75 89.2Q95.55 89.2 95.55 87.8L95.55 80.1L100.8 82.9L100.8 84.65Q100.8 86.05 99.4 86.05M144.55 56.2Q142.1 44.1 129.25 30.4Q116.6 16.55 101.15 9.35Q85.7 2.15 76.55 5.45Q67.25 8.8 69.9 20.9Q72.2 33.05 85 46.7Q97.65 60.4 113.1 67.6Q128.55 75 137.85 71.65Q147 68.15 144.55 56.2M136.1 69.7Q127.5 72.9 112.95 66.05Q98.35 59.2 86.25 46.2Q74.3 33.2 71.85 21.8Q69.55 10.55 78.15 7.2Q86.95 4.05 101.5 10.9Q116.1 17.75 128.05 30.75Q140.15 43.75 142.45 55.15Q144.7 66.55 136.1 69.7M57.25 36.55L57.95 38.1L66.9 26.35L67.25 26L66.9 24.95L58.5 36Q57.95 36.55 57.25 36.55M59.9 42.7L68.85 30.9L69.55 30.4L68.65 28.8L59.7 40.25Q59.55 40.75 59 40.75L59.9 42.7M49.7 42.7L31.1 47.4L31.8 48.15Q34.05 47.4 36.5 47.4L38.65 47.8L39.85 48.65Q40.2 49 40.2 51.1L40.2 65.7Q40.2 68.3 39.7 69Q39.15 69.7 37.75 70.25L31.8 70.6L31.8 71.3L58.5 71.3L58.5 70.6L57.4 70.6L53.2 70.05Q52.35 69.9 51.45 69Q51.1 68.5 51.1 65.7L51.1 42.7L49.7 42.7M72 34.95L70.75 32.85L61.65 44.8L61.1 45.15L62.15 47.25L71.3 35.3L72 34.95M75.15 39.35L73.4 37.05L64.1 49.2L63.55 49.7L65.15 52L74.3 39.9Q74.65 39.35 75.15 39.35M78.7 43.9L76.55 41.3L76.55 41.65L67.25 53.75L66.55 54.1L68.5 56.55L77.8 44.25L78.7 43.9" />
</g>
<g id="PathID_8" transform="matrix(1.16053, 0, 0, 1.16053, 11.15, 669.4)" opacity="1">
</g>
<g id="PathID_9" transform="matrix(-0.243419, -0.587875, -0.587875, 0.243419, 285.6, 777.2)" opacity="1">
<path style="fill:#74E868;fill-opacity:1" d="M85.55 79.4Q84.75 77.85 83.8 73.05L75.25 31.35L73.6 30.6L51.45 27.85L52.55 29.6Q56.25 30.15 58.25 31.1L61.1 33.1L63.05 35.3Q63.7 36.5 64.35 40L69.85 66.45Q70.85 71.3 70.4 72.4Q70.05 73.35 68.55 73.25Q66.9 73.25 62.6 71.3L60.85 70.4L61.2 71.7L95.5 87.95L95.3 86.65L93.75 85.85Q90.05 84.25 88.15 82.6Q86.4 81.05 85.55 79.4M129.05 62.05Q119.3 48.15 104.95 35.85Q89.6 22.55 73.05 14.8Q48.6 3.25 34.1 8.65Q19.5 14 23.45 33.1Q26.45 47.25 38.8 63.6Q51 79.6 68.2 92.55L65.45 95.95Q79.7 101.25 92 107.05Q116.45 118.55 130.95 113.2Q145.5 107.95 141.55 88.75Q139.05 76.45 129.05 62.05M65.45 95.95L60.95 92.45L60.85 92.8L46.05 112.1Q45.5 112.75 44.65 112.85Q43.75 112.95 43 112.4Q42.2 112 42.1 111Q42 110.1 42.55 109.35L57.35 90.15L57.8 89.7L53.3 85.85L53.1 86.4L38.25 105.6Q36.95 107.4 35.2 106.05Q33.55 104.75 34.75 103L49.55 83.8Q49.9 83.35 50.45 83.15L46.3 79.05L45.95 79.75L31.25 98.95Q30.7 99.7 29.7 99.8Q28.85 99.9 28.2 99.35Q27.4 98.8 27.3 97.95Q27.2 97.05 27.75 96.3L42.45 77.1Q42.9 76.55 43.65 76.35L39.9 72.15L39.6 72.8L24.9 92Q23.6 93.75 21.85 92.45Q20.2 91.15 21.4 89.4L36.2 70.05Q36.65 69.55 37.5 69.3L34.2 65.35L34.1 65.7L19.3 85Q18.85 85.75 17.9 85.85Q17 86 16.25 85.45Q15.6 84.9 15.45 83.9Q15.35 83 15.9 82.35L30.6 63.05Q31.05 62.5 31.9 62.3L29.3 58.55L14.6 77.85Q13.25 79.5 11.5 78.3Q10.75 77.75 10.65 76.75Q10.55 75.9 11.1 75.25L25.75 55.9Q26.2 55.35 27.1 55.15L25 51.95L10.65 70.75Q9.35 72.5 7.55 71.15Q5.95 69.85 7.15 68.1L21.95 48.8L22.9 48.15L21.6 45.5L7.55 63.7Q6.25 65.45 4.5 64.15Q3.75 63.6 3.6 62.7Q3.5 61.85 4.05 61.1L18.85 41.75L19.65 41.2L18.85 39.35L5.5 56.9Q4.95 57.7 3.95 57.8Q3.1 57.8 2.4 57.25Q1.65 56.8 1.55 55.8Q1.45 54.95 2 54.25L16.65 34.95L17.1 34.55L16.9 33.75L4.15 50.35Q3.6 51 2.75 51.1Q1.85 51.2 1.1 50.65Q0.45 50.1 0.35 49.25Q0.25 48.35 0.75 47.6L2.95 44.75Q1.85 45.05 0.9 44.4Q-0.75 42.95 0.55 41.35L2.4 38.9L1.65 38.6Q1 38.05 0.9 37.15Q0.75 36.3 1.3 35.5L3.3 32.9Q2 31.55 3.1 30.15L5.6 26.85Q5.4 25.95 6.05 25.3L17.65 10.05Q18.65 8.2 20.5 6.35L20.75 6L21.5 5.45Q28.5 -0.7 41.55 0.1Q55.05 0.85 71.85 8.75Q90.15 17.4 107.8 32.55Q123.9 46.5 135 62.15Q146.3 78.4 149.25 92.35Q151.65 104.85 146.95 112.3L146.95 112.55L136.95 125.7Q136.3 126.45 135.2 126.45L132.9 129.55Q131.6 130.95 130.15 130.1L128.2 132.7Q127.65 133.5 126.65 133.6Q125.75 133.7 125 133.15L124.55 132.5L122.7 135.05Q122.15 135.8 121.3 135.9Q120.4 135.9 119.65 135.35Q118.75 134.8 118.75 133.5L116.55 136.45Q116 137.1 115.15 137.2Q114.25 137.35 113.5 136.8Q112.75 136.35 112.6 135.35Q112.5 134.5 113.05 133.7L122.4 121.65L121.6 121.65L109.9 137Q109.35 137.65 108.45 137.75Q107.55 137.9 106.8 137.35Q106.05 136.9 105.95 135.9Q105.8 135.05 106.35 134.25L116.65 120.85L115.05 120.65L102.75 136.65Q102.2 137.45 101.2 137.55Q100.35 137.65 99.7 137.1Q98.9 136.55 98.8 135.55Q98.7 134.7 99.25 134.05L110.3 119.55L108 118.8L95.2 135.55Q94.65 136.25 93.75 136.35Q92.9 136.45 92.1 135.9Q91.35 135.45 91.25 134.5Q91.15 133.6 91.65 132.85L103.5 117.35L100.55 116.25L87.3 133.6Q85.95 135.25 84.2 134.05Q83.45 133.5 83.35 132.5Q83.25 131.6 83.8 130.95L96.4 114.5L93.2 113.1L92.9 112.85L79.15 130.85Q78.65 131.6 77.65 131.75Q76.75 131.85 76.1 131.3Q75.35 130.75 75.25 129.75Q75.1 128.9 75.65 128.2L88.95 110.9L85 108.8L70.85 127.35Q70.3 128 69.4 128.1Q68.55 128.2 67.9 127.65Q67.1 127.25 67 126.25Q66.9 125.35 67.45 124.6L81.15 106.6L77 104.1L62.5 122.95Q62.05 123.7 61.1 123.85Q60.2 123.95 59.45 123.4Q57.8 121.95 59.1 120.3L73.35 101.65L69 98.6L54.3 117.9Q53.75 118.7 52.75 118.8Q51.85 118.9 51.2 118.35Q50.45 117.8 50.35 116.8Q50.25 115.95 50.75 115.3L68.2 92.55M138.25 87.2Q142 105.3 128.3 110.35Q114.6 115.4 91.45 104.5Q68.45 93.65 49.45 73.15Q30.5 52.65 26.75 34.65Q23.05 16.65 36.75 11.5Q50.45 6.45 73.6 17.3Q96.6 28.15 115.6 48.7Q134.55 69.2 138.25 87.2" />
</g>
<g id="PathID_10" transform="matrix(-0.243419, -0.587875, -0.587875, 0.243419, 285.6, 777.2)" opacity="1">
</g>
<g id="PathID_11" transform="matrix(1.6932, 0, 0, 1.6932, 18.8, 884.6)" opacity="1">
<path style="fill:#FF9700;fill-opacity:1" d="M14.5 -34.25L15.15 -33.55Q11.4 -31 9.55 -28.15Q7.2 -24.45 7.2 -20.1Q7.2 -14.8 10.65 -10.35Q12.15 -11.55 12.45 -12.4Q12.8 -13.25 12.8 -17L12.8 -28.2L23.5 -37.15Q27.25 -35.65 29.35 -35.2Q31.5 -34.8 34.4 -34.8L34.95 -34.8L35.4 -33.85L31.25 -29.95Q27.1 -30.4 21.9 -33L22.15 -4.4L23.05 -4.4Q26.65 -4.4 29.6 -5.6Q32.6 -6.85 35.75 -9.6L36.55 -8.85Q34.2 -5.65 31.95 -3.85Q29.7 -2.1 26.55 -1.05Q23.4 0 20.3 0Q15.7 0 11.65 -2.2Q7.6 -4.45 5.3 -8.6Q3 -12.75 3 -17.15Q3 -22.55 6.25 -27.2Q8.8 -30.8 14.5 -34.25M20.75 -33.1L17.85 -30.6L17.85 -19.2Q17.85 -17.05 17.6 -16.35Q17.35 -15.4 16.45 -14.35Q14.6 -12.25 11.35 -9.5Q13.35 -7.3 15.6 -6.1Q17.9 -4.9 21 -4.55L20.75 -33.1" />
</g>
<g id="PathID_12" transform="matrix(1.6932, 0, 0, 1.6932, 18.8, 884.6)" opacity="1">
</g>
<g id="PathID_13" transform="matrix(1.6932, 0, 0, 1.6932, 82, 884.6)" opacity="1">
<path style="fill:#FF9700;fill-opacity:1" d="M19.65 -25.6L20.55 -25.25Q19.15 -23.15 18.8 -22Q18.45 -20.9 18.45 -19L18.45 -8.35Q18.45 -5.7 18.8 -5.05Q19.2 -4.4 19.7 -4.4L20.3 -4.5L21.35 -5.4L22 -4.6L16.6 0Q14.7 -1.5 14.05 -2.65Q13.4 -3.85 13.35 -6L5.7 0Q1.45 -3.5 1.45 -6.9Q1.45 -9.2 2.35 -11.2Q3.6 -13.8 6.6 -17.35L3.6 -23.7L3.95 -24.5L5.4 -24.4Q8.35 -24.4 10.6 -26.7Q12.4 -25.6 14.55 -24.95Q16.75 -24.3 17.9 -24.3Q18.4 -24.3 18.7 -24.45Q19 -24.65 19.65 -25.6M13.35 -20.8L4.75 -23.45L7.8 -17L13.35 -14.4L13.35 -20.8M13.35 -13.4L7.3 -16.2Q5.9 -13.15 5.9 -10.85Q5.9 -6.8 9.55 -4.2L13.35 -7.25L13.35 -13.4" />
</g>
<g id="PathID_14" transform="matrix(1.6932, 0, 0, 1.6932, 82, 884.6)" opacity="1">
</g>
<g id="PathID_15" transform="matrix(1.6932, 0, 0, 1.6932, 120.85, 884.6)" opacity="1">
<path style="fill:#FF9700;fill-opacity:1" d="M14.95 -36.75L14.95 -34.55Q18.3 -34 22.15 -32.35L20.15 -27.8L14.95 -29.25L14.95 -19.85L21.35 -23.2Q24.7 -19.5 24.7 -14.3Q24.7 -11 23.05 -8.15Q20.55 -3.85 14.95 0L14.95 4.45L12.2 4.45L12.2 -0.55L1.45 -3.55L4.3 -8.1L12.2 -5.95L12.2 -17.1L6.25 -14.05Q3.35 -16.9 2.4 -18.85Q1.45 -20.85 1.45 -23.4Q1.45 -26.45 2.9 -29.05Q4.4 -31.7 7.15 -33.2Q9.15 -34.3 12.2 -34.6L12.2 -36.75L14.95 -36.75M12.2 -30.05L6.8 -31.6Q5.3 -29 5.3 -26.55Q5.3 -23.95 6.6 -21.85Q7.9 -19.8 10.85 -17.75L12.2 -18.45L12.2 -30.05M14.95 -5.2L18.35 -4.25Q19.65 -5.85 20.3 -7.55Q20.95 -9.3 20.95 -11.25Q20.95 -13.75 19.65 -15.95Q18.4 -18.2 16.3 -19.2L14.95 -18.5L14.95 -5.2" />
</g>
<g id="PathID_16" transform="matrix(1.6932, 0, 0, 1.6932, 120.85, 884.6)" opacity="1">
</g>
<g id="PathID_17" transform="matrix(1.6932, 0, 0, 1.6932, 164.9, 884.6)" opacity="1">
<path style="fill:#FF9700;fill-opacity:1" d="M11.75 -35.85L11.95 -35.25Q10.15 -34.1 9.5 -32.8Q8.85 -31.5 8.85 -28.65L8.85 -20.55L16.5 -26.7Q18.95 -25.05 19.7 -23.55Q20.45 -22.1 20.45 -18.5L20.45 -7.15Q20.45 -3.9 19.75 -2.4Q18.7 0.1 15.8 2.25Q12 5.1 6.2 7.15L5.85 6.2Q10.6 4.25 12.45 2.6Q14.35 1 14.9 -0.85Q15.35 -2.2 15.35 -8L15.35 -18.5Q15.35 -20.25 14.95 -20.95Q14.45 -21.85 13.05 -22.75L8.85 -19.3L8.85 -5.4L10.65 -3.55L6.2 0L1.75 -3.55L3.75 -5.55L3.75 -28.25Q3.75 -31.35 3.2 -32.5Q2.65 -33.65 1.05 -34.6L1.35 -35.25Q2.65 -34.85 3.4 -34.4Q4.2 -33.95 5.5 -32.8Q7.05 -34.25 8.45 -34.9Q9.9 -35.6 11.75 -35.85" />
</g>
<g id="PathID_18" transform="matrix(1.6932, 0, 0, 1.6932, 164.9, 884.6)" opacity="1">
</g>
<g id="PathID_19" transform="matrix(1.68278, 0, 0, 1.68278, 221.7, 883.5)" opacity="1">
<path style="fill:#FF2C00;fill-opacity:1" d="M14.95 -36.75L14.95 -34.55Q18.3 -34 22.15 -32.35L20.15 -27.8L14.95 -29.25L14.95 -19.85L21.35 -23.2Q24.7 -19.5 24.7 -14.3Q24.7 -11 23.05 -8.15Q20.55 -3.85 14.95 0L14.95 4.45L12.2 4.45L12.2 -0.55L1.45 -3.55L4.3 -8.1L12.2 -5.95L12.2 -17.1L6.25 -14.05Q3.35 -16.9 2.4 -18.85Q1.45 -20.85 1.45 -23.4Q1.45 -26.45 2.9 -29.05Q4.4 -31.7 7.15 -33.2Q9.15 -34.3 12.2 -34.6L12.2 -36.75L14.95 -36.75M12.2 -30.05L6.8 -31.6Q5.3 -29 5.3 -26.55Q5.3 -23.95 6.6 -21.85Q7.9 -19.8 10.85 -17.75L12.2 -18.45L12.2 -30.05M14.95 -5.2L18.35 -4.25Q19.65 -5.85 20.3 -7.55Q20.95 -9.3 20.95 -11.25Q20.95 -13.75 19.65 -15.95Q18.4 -18.2 16.3 -19.2L14.95 -18.5L14.95 -5.2" />
</g>
<g id="PathID_20" transform="matrix(1.68278, 0, 0, 1.68278, 221.7, 883.5)" opacity="1">
</g>
<g id="PathID_21" transform="matrix(1.68278, 0, 0, 1.68278, 265.5, 883.5)" opacity="1">
<path style="fill:#FF2C00;fill-opacity:1" d="M1.05 -23.9L8 -32.55L8.75 -32.55L8.5 -25.65L13.55 -25.65L13.55 -22.85L8.5 -22.85L8.5 -6L11.3 -3.9L12.9 -5.15L13.55 -4.4L8 0Q5.2 -2.85 1.65 -3.9L1.65 -4.4Q2.65 -5.05 2.95 -5.8Q3.4 -6.7 3.4 -8.45L3.4 -22.85L1.05 -22.85L1.05 -23.9" />
</g>
<g id="PathID_22" transform="matrix(1.68278, 0, 0, 1.68278, 265.5, 883.5)" opacity="1">
</g>
<g id="PathID_23" transform="matrix(1.68278, 0, 0, 1.68278, 289.75, 883.5)" opacity="1">
<path style="fill:#FF2C00;fill-opacity:1" d="M19.65 -25.6L20.55 -25.25Q19.15 -23.15 18.8 -22Q18.45 -20.9 18.45 -19L18.45 -8.35Q18.45 -5.7 18.8 -5.05Q19.2 -4.4 19.7 -4.4L20.3 -4.5L21.35 -5.4L22 -4.6L16.6 0Q14.7 -1.5 14.05 -2.65Q13.4 -3.85 13.35 -6L5.7 0Q1.45 -3.5 1.45 -6.9Q1.45 -9.2 2.35 -11.2Q3.6 -13.8 6.6 -17.35L3.6 -23.7L3.95 -24.5L5.4 -24.4Q8.35 -24.4 10.6 -26.7Q12.4 -25.6 14.55 -24.95Q16.75 -24.3 17.9 -24.3Q18.4 -24.3 18.7 -24.45Q19 -24.65 19.65 -25.6M13.35 -20.8L4.75 -23.45L7.8 -17L13.35 -14.4L13.35 -20.8M13.35 -13.4L7.3 -16.2Q5.9 -13.15 5.9 -10.85Q5.9 -6.8 9.55 -4.2L13.35 -7.25L13.35 -13.4" />
</g>
<g id="PathID_24" transform="matrix(1.68278, 0, 0, 1.68278, 289.75, 883.5)" opacity="1">
</g>
<g id="PathID_25" transform="matrix(1.68278, 0, 0, 1.68278, 328.35, 883.5)" opacity="1">
<path style="fill:#FF2C00;fill-opacity:1" d="M9.85 -26.7L16.35 -22.95L13.65 -19.1L8.8 -21.9L8.8 -5.95L13.7 -3.7L16.3 -5.65L16.6 -4.6L10.4 0Q8 -1.35 6.3 -2Q4.6 -2.65 2.15 -3.1L2.15 -3.7Q3 -4.3 3.3 -5Q3.7 -5.95 3.7 -8.05L3.7 -22.3Q6.8 -23.7 9.85 -26.7" />
</g>
<g id="PathID_26" transform="matrix(1.68278, 0, 0, 1.68278, 328.35, 883.5)" opacity="1">
</g>
<g id="PathID_27" transform="matrix(1.68278, 0, 0, 1.68278, 356.85, 883.5)" opacity="1">
<path style="fill:#FF2C00;fill-opacity:1" d="M12.6 -35.85L12.6 -35.25Q10.7 -33.95 10.05 -32.55Q9.4 -31.2 9.4 -28.1L9.4 -19.45L16.85 -26.7L21.9 -21.1L16.1 -16.05Q18.1 -14.6 19.05 -12.95Q20.05 -11.3 20.6 -8.1Q21.2 -4.95 21.5 -4.45Q21.85 -4 22.1 -4Q22.4 -4 23.75 -5.05L24.25 -4.25L18.4 0Q17.35 -1.05 16.85 -2.2Q16.35 -3.4 16.1 -5.65L9 0Q7.5 -1.45 6.05 -2.25Q4.65 -3.1 2.6 -3.8L2.6 -4.3Q3.75 -5.05 4.05 -5.85Q4.4 -6.7 4.4 -10.1L4.4 -28.25Q4.4 -30.4 4.2 -31.25Q3.9 -32.5 3.35 -33.15Q2.85 -33.85 1.7 -34.45L2.05 -35.2Q3.5 -34.6 4.25 -34.15Q5.05 -33.7 6.15 -32.65Q7.8 -34.2 9.25 -34.9Q10.7 -35.6 12.6 -35.85M13.95 -22.55L9.4 -18.15L9.4 -11.45L17.65 -18.5L13.95 -22.55M9.4 -10.25L9.4 -5.85L12.3 -3.8L16 -6.8Q15.35 -11 12.3 -12.85L9.4 -10.25" />
</g>
<g id="PathID_28" transform="matrix(1.68278, 0, 0, 1.68278, 356.85, 883.5)" opacity="1">
</g>
</svg>
