<svg width="145" height="54" viewBox="0 0 145 54" fill="none" xmlns="http://www.w3.org/2000/svg">
<path d="M49.9109 45.4113C49.9109 44.7879 50.0356 44.2416 50.2849 43.7723C50.5416 43.2956 50.8936 42.9289 51.3409 42.6723C51.7882 42.4156 52.3016 42.2873 52.8809 42.2873C53.6142 42.2873 54.2192 42.4633 54.6959 42.8153C55.1799 43.1599 55.5062 43.6549 55.6749 44.3003H54.3219C54.2119 43.9996 54.0359 43.7649 53.7939 43.5963C53.5519 43.4276 53.2476 43.3433 52.8809 43.3433C52.3676 43.3433 51.9569 43.5266 51.6489 43.8933C51.3482 44.2526 51.1979 44.7586 51.1979 45.4113C51.1979 46.0639 51.3482 46.5736 51.6489 46.9403C51.9569 47.3069 52.3676 47.4903 52.8809 47.4903C53.6069 47.4903 54.0872 47.1713 54.3219 46.5333H55.6749C55.4989 47.1493 55.1689 47.6406 54.6849 48.0073C54.2009 48.3666 53.5996 48.5463 52.8809 48.5463C52.3016 48.5463 51.7882 48.4179 51.3409 48.1613C50.8936 47.8973 50.5416 47.5306 50.2849 47.0613C50.0356 46.5846 49.9109 46.0346 49.9109 45.4113ZM61.3576 41.5833C61.1303 41.5833 60.9396 41.5063 60.7856 41.3523C60.6316 41.1983 60.5546 41.0076 60.5546 40.7803C60.5546 40.5529 60.6316 40.3623 60.7856 40.2083C60.9396 40.0543 61.1303 39.9773 61.3576 39.9773C61.5776 39.9773 61.7646 40.0543 61.9186 40.2083C62.0726 40.3623 62.1496 40.5529 62.1496 40.7803C62.1496 41.0076 62.0726 41.1983 61.9186 41.3523C61.7646 41.5063 61.5776 41.5833 61.3576 41.5833ZM61.9736 42.3863V48.4473H60.7196V42.3863H61.9736ZM68.878 43.4093V46.7643C68.878 46.9916 68.9293 47.1566 69.032 47.2593C69.142 47.3546 69.3253 47.4023 69.582 47.4023H70.352V48.4473H69.362C68.7973 48.4473 68.3647 48.3153 68.064 48.0513C67.7633 47.7873 67.613 47.3583 67.613 46.7643V43.4093H66.898V42.3863H67.613V40.8793H68.878V42.3863H70.352V43.4093H68.878ZM75.9408 41.5833C75.7134 41.5833 75.5228 41.5063 75.3688 41.3523C75.2148 41.1983 75.1378 41.0076 75.1378 40.7803C75.1378 40.5529 75.2148 40.3623 75.3688 40.2083C75.5228 40.0543 75.7134 39.9773 75.9408 39.9773C76.1608 39.9773 76.3478 40.0543 76.5018 40.2083C76.6558 40.3623 76.7328 40.5529 76.7328 40.7803C76.7328 41.0076 76.6558 41.1983 76.5018 41.3523C76.3478 41.5063 76.1608 41.5833 75.9408 41.5833ZM76.5568 42.3863V48.4473H75.3028V42.3863H76.5568ZM87.5532 45.2683C87.5532 45.4956 87.5385 45.7009 87.5092 45.8843H82.8782C82.9148 46.3683 83.0945 46.7569 83.4172 47.0503C83.7398 47.3436 84.1358 47.4903 84.6052 47.4903C85.2798 47.4903 85.7565 47.2079 86.0352 46.6433H87.3882C87.2048 47.2006 86.8712 47.6589 86.3872 48.0183C85.9105 48.3703 85.3165 48.5463 84.6052 48.5463C84.0258 48.5463 83.5052 48.4179 83.0432 48.1613C82.5885 47.8973 82.2292 47.5306 81.9652 47.0613C81.7085 46.5846 81.5802 46.0346 81.5802 45.4113C81.5802 44.7879 81.7048 44.2416 81.9542 43.7723C82.2108 43.2956 82.5665 42.9289 83.0212 42.6723C83.4832 42.4156 84.0112 42.2873 84.6052 42.2873C85.1772 42.2873 85.6868 42.4119 86.1342 42.6613C86.5815 42.9106 86.9298 43.2626 87.1792 43.7173C87.4285 44.1646 87.5532 44.6816 87.5532 45.2683ZM86.2442 44.8723C86.2368 44.4103 86.0718 44.0399 85.7492 43.7613C85.4265 43.4826 85.0268 43.3433 84.5502 43.3433C84.1175 43.3433 83.7472 43.4826 83.4392 43.7613C83.1312 44.0326 82.9478 44.4029 82.8892 44.8723H86.2442ZM94.7822 48.5463C94.3056 48.5463 93.8766 48.4619 93.4952 48.2933C93.1212 48.1173 92.8242 47.8826 92.6042 47.5893C92.3842 47.2886 92.2669 46.9549 92.2522 46.5883H93.5502C93.5722 46.8449 93.6932 47.0613 93.9132 47.2373C94.1406 47.4059 94.4229 47.4903 94.7602 47.4903C95.1122 47.4903 95.3836 47.4243 95.5742 47.2923C95.7722 47.1529 95.8712 46.9769 95.8712 46.7643C95.8712 46.5369 95.7612 46.3683 95.5412 46.2583C95.3286 46.1483 94.9876 46.0273 94.5182 45.8953C94.0636 45.7706 93.6932 45.6496 93.4072 45.5323C93.1212 45.4149 92.8719 45.2353 92.6592 44.9933C92.4539 44.7513 92.3512 44.4323 92.3512 44.0363C92.3512 43.7136 92.4466 43.4203 92.6372 43.1563C92.8279 42.8849 93.0992 42.6723 93.4512 42.5183C93.8106 42.3643 94.2212 42.2873 94.6832 42.2873C95.3726 42.2873 95.9262 42.4633 96.3442 42.8153C96.7696 43.1599 96.9969 43.6329 97.0262 44.2343H95.7722C95.7502 43.9629 95.6402 43.7466 95.4422 43.5853C95.2442 43.4239 94.9766 43.3433 94.6392 43.3433C94.3092 43.3433 94.0562 43.4056 93.8802 43.5303C93.7042 43.6549 93.6162 43.8199 93.6162 44.0253C93.6162 44.1866 93.6749 44.3223 93.7922 44.4323C93.9096 44.5423 94.0526 44.6303 94.2212 44.6963C94.3899 44.7549 94.6392 44.8319 94.9692 44.9273C95.4092 45.0446 95.7686 45.1656 96.0472 45.2903C96.3332 45.4076 96.5789 45.5836 96.7842 45.8183C96.9896 46.0529 97.0959 46.3646 97.1032 46.7533C97.1032 47.0979 97.0079 47.4059 96.8172 47.6773C96.6266 47.9486 96.3552 48.1613 96.0032 48.3153C95.6586 48.4693 95.2516 48.5463 94.7822 48.5463Z" fill="#042E3D"/>
<path d="M66.0461 8.06543V23.0782C66.0461 25.8595 65.3125 27.9729 63.8451 29.4183C62.3997 30.8419 60.363 31.5536 57.7349 31.5536C54.9098 31.5536 52.665 30.7762 51.0006 29.2212C49.3361 27.6663 48.5039 25.3996 48.5039 22.4212H55.6982C55.6982 23.3629 55.8515 24.0308 56.1581 24.425C56.4647 24.7973 56.8808 24.9835 57.4064 24.9835C57.8444 24.9835 58.1839 24.8411 58.4248 24.5564C58.6657 24.2717 58.7861 23.779 58.7861 23.0782V8.06543H66.0461Z" fill="#042E3D"/>
<path d="M75.5348 12.566C76.7394 12.566 77.7796 12.8178 78.6556 13.3215C79.5317 13.8033 80.1996 14.4713 80.6595 15.3254V12.7959H87.9195V31.3237H80.6595V28.7942C80.1996 29.6483 79.5317 30.3272 78.6556 30.8309C77.7796 31.3127 76.7394 31.5536 75.5348 31.5536C74.0894 31.5536 72.7863 31.1813 71.6256 30.4367C70.4649 29.6702 69.5451 28.5752 68.8662 27.1516C68.2091 25.7062 67.8806 24.0089 67.8806 22.0598C67.8806 20.1107 68.2091 18.4243 68.8662 17.0008C69.5451 15.5554 70.4649 14.4604 71.6256 13.7157C72.7863 12.9492 74.0894 12.566 75.5348 12.566ZM77.9658 18.939C77.1774 18.939 76.5313 19.2127 76.0276 19.7603C75.5239 20.3078 75.272 21.0743 75.272 22.0598C75.272 23.0453 75.5239 23.8118 76.0276 24.3593C76.5313 24.9068 77.1774 25.1806 77.9658 25.1806C78.7542 25.1806 79.4003 24.9068 79.904 24.3593C80.4077 23.8118 80.6595 23.0453 80.6595 22.0598C80.6595 21.0743 80.4077 20.3078 79.904 19.7603C79.4003 19.2127 78.7542 18.939 77.9658 18.939Z" fill="#042E3D"/>
<path d="M115.602 12.6645C117.968 12.6645 119.796 13.3763 121.088 14.7998C122.402 16.2233 123.059 18.1506 123.059 20.5815V31.3237H115.799V21.5013C115.799 20.7129 115.559 20.0997 115.077 19.6617C114.617 19.2018 113.993 18.9718 113.204 18.9718C112.394 18.9718 111.759 19.2018 111.299 19.6617C110.839 20.0997 110.609 20.7129 110.609 21.5013V31.3237H103.349V21.5013C103.349 20.7129 103.108 20.0997 102.626 19.6617C102.166 19.2018 101.542 18.9718 100.754 18.9718C99.9435 18.9718 99.3084 19.2018 98.8485 19.6617C98.3886 20.0997 98.1586 20.7129 98.1586 21.5013V31.3237H90.8658V12.7959H98.1586V15.2926C98.6843 14.5041 99.396 13.869 100.294 13.3872C101.214 12.9054 102.287 12.6645 103.513 12.6645C104.849 12.6645 106.032 12.9602 107.061 13.5515C108.09 14.1209 108.912 14.9312 109.525 15.9824C110.204 15.0188 111.069 14.2304 112.12 13.6172C113.171 12.9821 114.332 12.6645 115.602 12.6645Z" fill="#042E3D"/>
<path d="M133.183 12.7959V31.3237H125.89V12.7959H133.183Z" fill="#042E3D"/>
<path d="M143.441 12.7959V31.3237H136.148V12.7959H143.441Z" fill="#042E3D"/>
<path d="M133.205 10.4934V5.12061H125.912V10.4934H133.205Z" fill="#042E3D"/>
<path d="M143.441 10.4934V5.12061H136.148V10.4934H143.441Z" fill="#042E3D"/>
<path fill-rule="evenodd" clip-rule="evenodd" d="M31.8726 1.79102H20.3563L14.277 5.20052V17.7912H17.7539V38.5753H14.3484L14.3484 21.4363H14.277V22.3291H4.98011L0.892578 25.7387V33.5496C0.892578 37.0362 2.54327 40.3529 4.98011 42.7987C5.29802 43.1178 5.6293 43.4221 5.97205 43.7099C8.56617 45.8887 11.8814 47.2343 15.2533 47.2905C16.9529 47.3189 18.6842 47.1065 20.3563 46.6699C26.5164 45.0616 31.8726 40.4111 31.8726 33.5498L31.8726 1.79102ZM30.7451 4.27273H21.8821V7.67816H30.7451V4.27273ZM21.8821 24.5598H30.7451V27.9653H21.8821V24.5598ZM30.7451 17.7973H21.8821V21.2027H30.7451V17.7973ZM21.8821 11.035H30.7451V14.4405H21.8821V11.035ZM12.0759 24.5596H5.79307V27.965H12.0759V24.5596ZM5.79306 31.3218H12.0759V34.7272H5.79306V31.3218Z" fill="#042E3D"/>
<path fill-rule="evenodd" clip-rule="evenodd" d="M20.3565 0.898193H20.1233L19.9198 1.01229L13.8405 4.4218L13.3844 4.67758V5.20047V17.7912H15.17V5.72335L20.5898 2.68372H30.98L30.9801 33.5497C30.9801 39.8621 26.0557 44.2592 20.131 45.806C18.5351 46.2227 16.8846 46.4248 15.2684 46.3978C12.1201 46.3453 8.99858 45.0858 6.54642 43.0262C6.22392 42.7554 5.91207 42.469 5.61274 42.1686C3.30789 39.8552 1.78553 36.7549 1.78553 33.5496V26.1565L5.30376 23.2219H14.2772H14.3486V21.4362H13.3844V21.4363H4.9803H4.65684L4.40844 21.6435L0.320911 25.053L0 25.3207V25.7386V33.5496C0 37.3173 1.77903 40.8505 4.34786 43.4288C4.68434 43.7665 5.03506 44.0886 5.39805 44.3935C8.13414 46.6916 11.6431 48.1231 15.2386 48.1831C17.0216 48.2128 18.8337 47.9901 20.5821 47.5336C26.9776 45.8639 32.7656 40.96 32.7656 33.5497L32.7655 1.79096V0.898193H31.8728H20.3565Z" fill="#042E3D"/>
</svg>
