<svg height="512" viewBox="0 0 58 58" width="512" xmlns="http://www.w3.org/2000/svg"><g id="Page-1" fill="none" fill-rule="evenodd"><g id="040---Money" fill-rule="nonzero"><path id="Shape" d="m47.13 28c-3.23-5.68-5.55-9.34-7.21-12h-11.84c-1.66 2.65-3.98 6.32-7.21 12-2.17 3.83-2.98 6.91-2.85 9.38l9.98 14.62 1.5156-.7685.3606.7685 4.127-3.0438 14.6068-7.4062c1.98-2.88 2.14-7.19-1.48-13.55z" fill="#a56a43"/><path id="Shape" d="m39.3108 12s-.7389-4.7508 2.6554-6.723c4.4257-2.5714.8851-6-3.5405-5.1429-1.0053276.17008448-1.983287.4742989-2.9077.9045-.956753.47290589-2.079247.47290589-3.036 0-.924377-.43020387-1.9023038-.7344186-2.9076-.9045-4.4257-.8571-7.9662 2.5715-3.5406 5.1429 3.3943 1.9723 2.6554 6.723 2.6554 6.723" fill="#805333"/><g fill="#603e26"><path id="Shape" d="m30.999 21c-.3464375-.0003062-.6680363-.179899-.8500247-.4746857-.1819885-.2947868-.198437-.6627661-.0434753-.9726143.5376926-1.1115582.8421101-2.3214346.8945-3.5551.0029128-.5504414.4495515-.9953382 1-.9961h.0029c.5508638.0008825.9969904.4476355.9971.9985-.0511648 1.5437483-.4278903 3.059272-1.1055 4.4473-.1695888.3390964-.5163608.553123-.8955.5527z"/><path id="Shape" d="m37.001 21c-.3792057.000658-.7260914-.2134388-.8955-.5527-.6776097-1.388028-1.0543352-2.9035517-1.1055-4.4473-.0006627-.5522847.4465153-1.0005372.9988-1.0011999.5522847-.0006628 1.0005372.4465152 1.0012.9987999.0523899 1.2336654.3568074 2.4435418.8945 3.5551.1549617.3098482.1385132.6778275-.0434753.9726143-.1819884.2947867-.5035872.4743795-.8500247.4746857z"/><path id="Shape" d="m32.001 14c-.2994654-.0001017-.5831525-.1342875-.7731941-.3657259-.1900417-.2314384-.2664697-.5358114-.2083059-.8295741.23-1.1631.5918-4.78-.7265-6.0977-.3789722-.39237889-.3735524-1.01608478.0121814-1.40181858.3857338-.38573379 1.0094397-.39115363 1.4018186-.01218142 2.3116 2.3115 1.3868 7.3379 1.2735 7.9033-.0934814.466953-.5032819.8032028-.9795.8037z"/><path id="Shape" d="m36 14c-.2652671.0003072-.5197135-.1051423-.707-.293-.4141-.4145-1.27-1.9165-.2735-6.9033.1126939-.53696717.6369978-.88285349 1.1749873-.77514585s.8887249.6287803.7860127 1.16774585c-.7735 3.8662-.2647 5.0493-.1993 5.18.239558.3002304.2859883.7111381.119464 1.0572537-.1665242.3461156-.5165725.5662682-.900664.5664463zm.71-1.7047.0009.0015zm-.003-.0024.002.0019z"/></g><path id="Shape" d="m57.4521 40.585-.0038-.0051c-.7076308-.9435218-1.9396302-1.3283681-3.0585-.9554l-18.5107 6.17c-.4078451.1360503-.8349612.2054411-1.2649.2055h-2.3509l.0014-.0015c1.1745254-1.174559 1.3989753-2.9977406.5444-4.4221l-.0893-.1489c-.903628-1.5060297-2.5311774-2.4275169-4.2875-2.4275h-5.23c-2.0727246.0001718-4.0837766-.7051759-5.7023-2-1.6182895-1.294688-3.629043-2.0000299-5.7015-2h-2.7985v22h25.3c1.2839725.0000712 2.5432307-.3530055 3.64-1.0206l18.7448-11.4094c.6601997-.401774 1.1200233-1.0636748 1.2661478-1.8225777.1461245-.7589028-.0350407-1.5442241-.4988478-2.1624223z" fill="#f9c795"/><path id="Shape" d="m8.0005 33h-6c-1.1045695 0-2 .8954305-2 2v21c0 1.1045695.8954305 2 2 2h6c1.1045695 0 2-.8954305 2-2v-21c0-1.1045695-.8954305-2-2-2z" fill="#955ba5"/><path id="Shape" d="m40 12h-12c-1.1045695 0-2 .8954305-2 2s.8954305 2 2 2h12c1.1045695 0 2-.8954305 2-2s-.8954305-2-2-2z" fill="#f3d55b"/></g></g></svg>