<?xml version="1.0" encoding="iso-8859-1"?>
<!-- Generator: Adobe Illustrator 19.0.0, SVG Export Plug-In . SVG Version: 6.00 Build 0)  -->
<svg version="1.1" id="Layer_1" xmlns="http://www.w3.org/2000/svg" xmlns:xlink="http://www.w3.org/1999/xlink" x="0px" y="0px"
	 viewBox="0 0 511.999 511.999" style="enable-background:new 0 0 511.999 511.999;" xml:space="preserve">
<g>
	<g>
		<path style="fill:#805333;" d="M123.662,65.792c3.098,7.521,5.094,14.566,6.215,22.484h215.402
			c1.121-7.918,3.116-14.963,6.215-22.484c4.167-10.09,9.022-18.767,15.404-23.949C392.577,20.966,374.33,0.344,353.012,0h-0.556
			c-11.626,0-21.848,5.959-27.825,14.972C318.655,5.959,308.432,0,296.806,0c-11.626,0-21.848,5.959-27.825,14.972
			C263.006,5.959,249.914,0,238.279,0c-11.626,0-26.13,5.959-32.106,14.972C200.197,5.959,189.975,0,178.349,0
			c-11.635,0-21.848,5.959-27.825,14.972C144.539,5.959,134.326,0,122.7,0h-0.556c-21.319,0.344-36.502,24.461-13.886,41.843
			C114.782,46.848,119.495,55.702,123.662,65.792"/>
		<path style="fill:#805333;" d="M300.075,459.034v-52.966h176.578c-0.671-13.85-4.131-27.939-11.14-41.498L355.548,151.719
			c-2.842-5.862-5.076-13.109-6.877-19.306h-222.19c-1.801,6.197-4.034,13.444-6.877,19.306L11.793,360.403
			c-35.725,69.155,14.477,151.596,92.319,151.596H282.42v-52.966H300.075z"/>
	</g>
	<polygon style="fill:#F0C419;" points="300.073,459.034 511.935,459.034 511.935,406.068 300.073,406.068 	"/>
	<g>
		<polygon style="fill:#BA9317;" points="450.142,459.034 467.797,459.034 467.797,406.068 450.142,406.068 		"/>
		<polygon style="fill:#BA9317;" points="397.176,459.034 414.831,459.034 414.831,406.068 397.176,406.068 		"/>
		<polygon style="fill:#BA9317;" points="344.21,459.034 361.866,459.034 361.866,406.068 344.21,406.068 		"/>
		<polygon style="fill:#BA9317;" points="282.417,511.999 494.279,511.999 494.279,459.034 282.417,459.034 		"/>
	</g>
	<g>
		<polygon style="fill:#896A12;" points="432.486,511.999 450.142,511.999 450.142,459.034 432.486,459.034 		"/>
		<polygon style="fill:#896A12;" points="379.521,511.999 397.176,511.999 397.176,459.034 379.521,459.034 		"/>
		<polygon style="fill:#896A12;" points="326.555,511.999 344.21,511.999 344.21,459.034 326.555,459.034 		"/>
	</g>
	<g>
		<polygon style="fill:#5E3B24;" points="123.521,132.413 351.37,132.413 351.37,88.275 123.521,88.275 		"/>
		<path style="fill:#5E3B24;" d="M299.731,220.689c-43.538,0-61.175-48.437-67.337-73.092c-14.336,11.538-38.25,35.151-38.25,64.265
			c0,4.873-3.955,8.828-8.828,8.828c-4.873,0-8.828-3.955-8.828-8.828c0-51.306,54.837-85.539,57.176-86.978
			c2.542-1.545,5.676-1.713,8.369-0.459c2.692,1.262,4.564,3.796,4.988,6.735c0.106,0.724,10.849,71.874,52.736,71.874
			c0.106,0,0.23-0.009,0.318,0c4.846,0,8.792,3.911,8.828,8.766c0.035,4.873-3.893,8.854-8.766,8.889H299.731z"/>
	</g>
	<g>
		<path style="fill:#F0C419;" d="M247.11,406.068c-43.802,0-79.448-39.601-79.448-88.276s35.646-88.276,79.448-88.276
			c14.133,0,28.01,4.175,40.13,12.067c4.087,2.657,5.244,8.121,2.586,12.209c-2.657,4.087-8.13,5.252-12.209,2.578
			c-9.251-6.02-19.8-9.198-30.508-9.198c-34.074,0-61.793,31.682-61.793,70.621s27.719,70.621,61.793,70.621
			c10.699,0,21.248-3.178,30.499-9.198c4.087-2.657,9.56-1.501,12.217,2.578c2.657,4.087,1.501,9.56-2.586,12.217
			C275.111,401.901,261.243,406.068,247.11,406.068"/>
		<path style="fill:#F0C419;" d="M220.627,308.965h-70.621c-4.873,0-8.828-3.955-8.828-8.828c0-4.873,3.955-8.828,8.828-8.828
			h70.621c4.873,0,8.828,3.955,8.828,8.828C229.454,305.01,225.5,308.965,220.627,308.965"/>
		<path style="fill:#F0C419;" d="M220.627,344.275h-70.621c-4.873,0-8.828-3.955-8.828-8.828s3.955-8.828,8.828-8.828h70.621
			c4.873,0,8.828,3.955,8.828,8.828S225.5,344.275,220.627,344.275"/>
	</g>
</g>
<g>
</g>
<g>
</g>
<g>
</g>
<g>
</g>
<g>
</g>
<g>
</g>
<g>
</g>
<g>
</g>
<g>
</g>
<g>
</g>
<g>
</g>
<g>
</g>
<g>
</g>
<g>
</g>
<g>
</g>
</svg>
