<svg height="512" viewBox="0 0 58 58" width="512" xmlns="http://www.w3.org/2000/svg"><g id="067---Cash" fill="none" transform="translate(0 -1)"><path id="Shape" d="m41 22h-12.19c-.5522847 0-1-.4477153-1-1s.4477153-1 1-1h11.19v-5c0-1.1045695-.8954305-2-2-2h-14.45c-.5522847 0-1-.4477153-1-1s.4477153-1 1-1h14.45c2.209139 0 4 1.790861 4 4v6c0 .5522847-.4477153 1-1 1z" fill="#d25627"/><path id="Shape" d="m58 36v19c0 2.209139-1.790861 4-4 4h-34c11 0 14-5.66 14.13-16.3-.0076567-.5688314-.0510757-1.1366185-.13-1.7h.14l18.86-3c2.76 0 5 .76 5-2z" fill="#e57e25"/><path id="Shape" d="m58 24v12c0 1.3260824-.5267842 2.597852-1.4644661 3.5355339s-2.2094515 1.4644661-3.5355339 1.4644661h-13-3.8c-.3009126-2.4384844-1.1045172-4.7880063-2.36-6.9-2.18-3.68-5.93-5.71-9.09-8.36-.6135843-.4992738-1.1978863-1.0334927-1.75-1.6.4075779-.2251862.7985705-.4791643 1.17-.76 1-.81 5.08-2.19 4.64-3.38h25.19c2.209139 0 4 1.790861 4 4z" fill="#f29c1f"/><path id="Shape" d="m58 36v3c0 2.7614237-2.2385763 5-5 5h-13.07c.04-.42.06-.85.06-1.29-.0072366-.5721708-.0506566-1.143311-.13-1.71h.14 13c1.3260824 0 2.597852-.5267842 3.5355339-1.4644661s1.4644661-2.2094515 1.4644661-3.5355339z" fill="#d25627"/><path id="Shape" d="m15.93 18.69c.0493773-.6657524.0493773-1.3342476 0-2-.23-3.28-1.2-8.48-4.07-10.93-.3655338-.24563779-.5273388-.70149492-.3984701-1.12261928.1288686-.42112435.5180704-.70836737.9584701-.70738072 1.43-.06 3.4.46 5.62 2.74.2188531.22320732.5294927.33123172.8396171.29197547.3101245-.03925626.5840496-.22127619.7403829-.49197547 1.5589938-2.69103782 4.1181104-4.65710069 7.12-5.47.3926439-.10912317.8122281.03093652 1.0605946.35403275s.2758241.76458653.0694054 1.11596725c-2.3284778 4.36849019-3.6249887 9.2124464-3.79 14.16v.58c-.0251335.479671-.0251335.960329 0 1.44l-4.32 3z" fill="#cb8252"/><path id="Shape" d="m40 42.7c0 .44-.02.87-.06 1.29-.79 9.81-9.41 15.01-19.94 15.01-3.9771995.0761537-7.9155083-.7944559-11.49-2.54-3.37112935-1.6690219-6.01425369-4.5149162-7.43-8-1.69265884-4.7588152-1.14891982-10.0272054 1.48-14.34 2.59-4.39 7.4-6.43 10.78-10h13.32c3.41 3.55 8.24 5.59 10.84 10 1.2528827 2.1059622 2.0563976 4.4484126 2.36 6.88.0822709.56317.1290299 1.1309581.14 1.7z" fill="#a56a43"/><path id="Shape" d="m38.07 41.1c-.07 9.73-8.14 14.9-18.07 14.9-3.5957274.0677205-7.1552627-.7278597-10.38-2.32-3.05246693-1.5264618-5.4422223-4.1153635-6.72-7.28-1.53954819-4.3601492-1.04798779-9.1803758 1.34-13.14 2.34-4 6.69-5.88 9.74-9.12h12.02c3.08 3.24 7.45 5.11 9.8 9.12 1.1599307 1.9294413 1.9089052 4.0776365 2.2 6.31.0530616.5082052.0764346 1.0190728.07 1.53z" fill="#cb8252"/><path id="Shape" d="m27.83 23.38c-.3714295.2808357-.7624221.5348138-1.17.76-2.0233826 1.1817681-4.3170882 1.8223526-6.66 1.86-2.3429118-.0376474-4.6366174-.6782319-6.66-1.86-.4075779-.2251862-.7985705-.4791643-1.17-.76-1.3144377-1.0106811-1.5606811-2.8955623-.55-4.21s2.8955623-1.5606811 4.21-.55l.1.06c.86.49 1 .56 1.13.62.9189292.4401486 1.9213181.6788126 2.94.7 1.4512888-.0542598 2.859536-.5075285 4.07-1.31l.12-.09c1.3237524-.9873138 3.1965268-.719136 4.19.6.9916496 1.309016.7465125 3.172058-.55 4.18z" fill="#805333"/><path id="Shape" d="m28.45 52.3c-1.1994812 1.0824574-2.7543551 1.6873283-4.37 1.7-1.1481254-.0542193-2.258968-.4245002-3.21-1.07-.2763-.1751226-.5674133-.3256984-.87-.45l-.16-.06c-1.3066598-.3019461-2.6762045-.1685033-3.9.38-.4305562.1696732-.8483076.3701939-1.25.6l-.23.13c-.3584392.3017668-.8114509.4681071-1.28.47-.3089032-.0003297-.6135316-.0722083-.89-.21-.437365-.2093176-.7690014-.5897985-.9166416-1.0516473-.1476402-.4618489-.098204-.9641481.1366416-1.3883527.61-1.08 1.21-2.23 1.78-3.42l.13-.27c.4421892-.8587036.8231382-1.7475846 1.14-2.66h-2c-.9941125 0-1.8-.8058875-1.8-1.8s.8058875-1.8 1.8-1.8h2c-.15-.53-.34-1.07-.55-1.61-.7794165-1.7444087-.903683-3.7113702-.35-5.54.7803949-1.9769021 2.4806131-3.4454422 4.55-3.93 2.391665-.6863975 4.9655237-.2525185 7 1.18 1.8677367 1.5421548 2.8306233 3.9230424 2.56 6.33-.1152674.9979141-.9983656 1.7264701-2 1.65-.4982344-.0150674-.9687632-.2327226-1.3028421-.602663-.3340788-.3699404-.5027956-.8601504-.4671579-1.357337.1476024-1.1997192-.282849-2.3983037-1.16-3.23-1.0582578-.6920906-2.3666097-.8857852-3.58-.53-.8883926.2062067-1.6287266.8169822-2 1.65-.2573732 1.0617941-.1334921 2.1802637.35 3.16.3571107.9145565.6478635 1.8536544.87 2.81h2.82c.9941125 0 1.8.8058875 1.8 1.8s-.8058875 1.8-1.8 1.8h-2.83c-.3237695 1.3144313-.8003483 2.5864269-1.42 3.79.9772047-.1552613 1.9727953-.1552613 2.95 0 .3385112.0520994.6727423.1289725 1 .23.6451564.2172672 1.2626855.5092511 1.84.87.3753174.2657455.8005094.4528299 1.25.55.6142389-.0185461 1.2050226-.24009 1.68-.63.7612382-.6870371 1.9187618-.6870371 2.68 0 .3442844.3266575.5392544.7804087.5392544 1.255s-.19497.9283425-.5392544 1.255z" fill="#fff"/><path id="Shape" d="m42 56h-2c-.5522847 0-1-.4477153-1-1s.4477153-1 1-1h2c.5522847 0 1 .4477153 1 1s-.4477153 1-1 1z" fill="#d25627"/><path id="Shape" d="m54 56h-8c-.5522847 0-1-.4477153-1-1s.4477153-1 1-1h8c.5522847 0 1 .4477153 1 1s-.4477153 1-1 1z" fill="#d25627"/><rect id="Rectangle-path" fill="#f3d55b" height="10" rx="2" width="6" x="45" y="36"/></g></svg>