<svg height="512pt" viewBox="0 0 512 512.00017" width="512pt" xmlns="http://www.w3.org/2000/svg"><path d="m194.207031 153.421875v18.453125c1.328125 22.375 18.8125 40.425781 41.136719 42.457031l35.398438 3.621094c21.71875 2.238281 38.226562 20.539063 38.222656 42.371094v41.492187c0 8.824219-7.152344 15.976563-15.976563 15.976563h-277.011719c-8.824218 0-15.976562-7.152344-15.976562-15.976563v-41.492187c-.00390625-21.832031 16.503906-40.132813 38.222656-42.371094l29.484375-3.621094c21.734375-2.28125 38.230469-20.609375 38.222657-42.457031v-18.453125zm0 0" fill="#f09372"/><path d="m150.070312 0h10.679688c28.585938.863281 51.269531 24.367188 51.113281 52.964844v6.53125c5.207031-2.644532 3.882813-3.085938 8.828125-1.058594 11.210938 4.855469 14.917969 21.453125 8.207032 37.078125-5.296876 12.359375-8.5625 20.566406-18.09375 21.007813-5.035157 30.101562-29.132813 60.027343-60.734376 60.027343-31.605468 0-55.703124-29.925781-60.734374-60.027343-9.535157-.441407-12.800782-8.648438-18.097657-21.007813-6.707031-15.625-3-32.222656 8.210938-37.078125 4.941406-2.027344 3.617187-1.585938 8.828125 1.058594v-6.53125c-.15625-28.597656 22.523437-52.101563 51.109375-52.964844zm0 0" fill="#fdd7ad"/><path d="m308.964844 260.324219v41.492187c0 8.824219-7.152344 15.976563-15.976563 15.976563h-277.011719c-8.824218 0-15.976562-7.152344-15.976562-15.976563v-41.492187c-.00390625-21.832031 16.503906-40.132813 38.222656-42.371094l22.597656-2.738281c14.921876 18.804687 49.261719 31.957031 89.25 31.957031 40.339844 0 74.855469-13.417969 89.597657-32.398437l31.074219 3.179687c21.71875 2.238281 38.226562 20.539063 38.222656 42.371094zm0 0" fill="#285680"/><path d="m397.242188 153.421875v18.453125c1.324218 22.375 18.8125 40.425781 41.136718 42.457031l35.398438 3.621094c21.71875 2.238281 38.226562 20.539063 38.222656 42.371094v41.492187c0 4.238282-1.683594 8.300782-4.679688 11.296875-2.996093 2.996094-7.0625 4.679688-11.296874 4.679688h-277.011719c-8.824219 0-15.976563-7.152344-15.976563-15.976563v-41.492187c-.003906-21.832031 16.503906-40.132813 38.222656-42.371094l29.484376-3.621094c21.730468-2.28125 38.230468-20.609375 38.222656-42.457031v-18.453125zm0 0" fill="#f09372"/><path d="m353.105469 0h10.679687c28.585938.863281 51.269532 24.367188 51.113282 52.964844v6.53125c5.207031-2.644532 3.882812-3.085938 8.824218-1.058594 11.210938 4.855469 14.921875 21.453125 8.210938 37.078125-5.296875 12.359375-8.5625 20.566406-18.097656 21.007813-5.03125 30.101562-29.128907 60.027343-60.730469 60.027343-31.605469 0-55.703125-29.925781-60.734375-60.027343-9.535156-.441407-12.800782-8.648438-18.097656-21.007813-6.710938-15.625-3-32.222656 8.210937-37.078125 4.941406-2.027344 3.617187-1.585938 8.824219 1.058594v-6.53125c-.15625-28.597656 22.527344-52.101563 51.113281-52.964844zm0 0" fill="#fdd7ad"/><path d="m512 260.324219v41.492187c0 4.238282-1.683594 8.300782-4.679688 11.296875-2.996093 2.996094-7.0625 4.679688-11.296874 4.679688h-277.011719c-8.824219 0-15.976563-7.152344-15.976563-15.976563v-41.492187c-.003906-21.832031 16.503906-40.132813 38.222656-42.371094l22.597657-2.738281c14.917969 18.804687 49.257812 31.957031 89.25 31.957031 40.339843 0 74.855469-13.417969 89.597656-32.398437l31.074219 3.179687c21.71875 2.238281 38.226562 20.539063 38.222656 42.371094zm0 0" fill="#cc4b4c"/><path d="m304.726562 342.421875v2.824219c0 24.964844 18.867188 45.890625 43.699219 48.464844l22.773438 4.238281c24.832031 2.570312 43.699219 23.5 43.699219 48.460937v47.316406c.019531 4.851563-1.898438 9.511719-5.332032 12.945313-3.429687 3.429687-8.089844 5.347656-12.941406 5.328125h-281.25c-4.851562.019531-9.511719-1.898438-12.941406-5.328125-3.433594-3.433594-5.351563-8.09375-5.328125-12.945313v-47.316406c-.003907-24.960937 18.863281-45.890625 43.695312-48.460937l22.773438-4.238281c24.832031-2.574219 43.699219-23.5 43.699219-48.464844v-2.824219zm0 0" fill="#f09372"/><path d="m414.898438 446.410156v47.316406c.019531 4.851563-1.898438 9.511719-5.332032 12.945313-3.429687 3.429687-8.089844 5.347656-12.941406 5.328125h-131.796875v-44.136719c9.738281-.03125 17.625-7.917969 17.65625-17.65625v-8.828125c-.027344-9.636718-7.757813-17.480468-17.390625-17.65625l9.179688-15.183594 17.035156 41.667969 62.675781-55.4375 17.214844 3.179688c24.832031 2.570312 43.699219 23.5 43.699219 48.460937zm0 0" fill="#2c2f38"/><path d="m264.828125 467.863281v44.136719h-149.453125c-4.851562.019531-9.511719-1.898438-12.941406-5.328125-3.433594-3.433594-5.351563-8.09375-5.328125-12.945313v-47.316406c-.003907-24.960937 18.863281-45.890625 43.695312-48.460937l17.214844-3.179688 62.675781 55.4375 17.035156-41.667969 9.179688 15.183594c-9.632812.175782-17.363281 8.019532-17.390625 17.65625v8.828125c.03125 9.738281 7.917969 17.625 17.65625 17.65625zm0 0" fill="#2c2f38"/><path d="m238.34375 406.070312 17.65625 35.308594 17.65625-35.308594 17.652344 44.136719v61.792969h-70.617188v-61.792969zm0 0" fill="#d1d4d1"/><path d="m247.171875 423.722656h17.65625c9.75 0 17.65625 7.90625 17.65625 17.65625v8.828125c0 9.75-7.90625 17.65625-17.65625 17.65625h-17.65625c-9.75 0-17.65625-7.90625-17.65625-17.65625v-8.828125c0-9.75 7.90625-17.65625 17.65625-17.65625zm0 0" fill="#e64c3c"/><path d="m286.457031 512-16.773437-44.84375h-27.367188l-16.773437 44.84375zm0 0" fill="#c03a2b"/><path d="m185.378906 292.191406c-.023437 39.003906 31.574219 70.640625 70.578125 70.667969 39 .023437 70.640625-31.574219 70.664063-70.578125 14.554687-6.503906 24.613281-20.183594 26.484375-36.015625 0-24.542969-14.832031-26.570313-26.484375-20.128906v-24.273438c0-29.253906-23.714844-52.964843-52.964844-52.964843h-35.3125c-29.25 0-52.964844 23.710937-52.964844 52.964843v24.1875c-11.828125-6.355469-26.480468-4.148437-26.480468 19.949219 1.957031 15.839844 11.976562 29.535156 26.480468 36.191406zm0 0" fill="#fdd7ad"/><path d="m326.621094 211.863281v23.570313c-4.816406-4.324219-11.207032-6.464844-17.65625-5.917969-33.191406 0-35.308594-35.308594-35.308594-35.308594s-37.429688 35.308594-70.621094 35.308594c-6.449218-.546875-12.839844 1.59375-17.65625 5.917969v-23.570313c0-29.253906 23.714844-52.964843 52.964844-52.964843h35.3125c29.25 0 52.964844 23.710937 52.964844 52.964843zm0 0" fill="#af8066"/><g fill="#e6e7e8"><path d="m353.984375 394.769531-62.675781 55.4375-17.652344-44.136719 45.902344-25.867187c7.804687 7.65625 17.988281 12.417969 28.867187 13.507813zm0 0"/><path d="m238.34375 406.070312-17.652344 44.136719-62.675781-55.4375 5.558594-1.058593c10.878906-1.089844 21.0625-5.851563 28.867187-13.507813zm0 0"/></g></svg>